# File created by Blade
# Date/Time:  Tue Jan 27 17:27:44 2015
#---------------------------------------------------------
:version 1.10
:name HOM
:units
  mass 1.0
  length 1.000000
  angle deg
:documentation
     Acclaim Skeleton File
:root
   axis xyz
   order TX TY TZ RX RY RZ
   position 0.000000 0.000000 0.000000
   orientation 0 0 0
:bonedata
   begin
      id 1
      name Spine_dum
      direction 0.000000 1.000000 0.000000
      length 7.539951
      axis 0.0 0.0 0.0 xyz
   end
   begin
      id 2
      name LeftUpLeg_dum
      direction 1.000000 0.000000 0.000000
      length 3.345476
      axis 0.0 0.0 0.0 xyz
   end
   begin
      id 3
      name RightUpLeg_dum
      direction -1.000000 0.000000 0.000000
      length 3.345476
      axis 0.0 0.0 0.0 xyz
   end
   begin
      id 4
      name Spine
      direction 0.000000 1.000000 0.000000
      length 0.000000
      axis 0.0 0.0 0.0 xyz
      dof rx ry rz
   end
   begin
      id 5
      name Spine_dum1
      direction 0.000000 1.000000 0.000000
      length 15.093809
      axis 0.0 0.0 0.0 xyz
   end
   begin
      id 6
      name Spine_dum2
      direction 0.000000 1.000000 0.000000
      length 9.738928
      axis 0.0 0.0 0.0 xyz
   end
   begin
      id 7
      name Spine_dum3
      direction 0.000000 1.000000 0.000000
      length 9.738928
      axis 0.0 0.0 0.0 xyz
   end
   begin
      id 8
      name Head
      direction 0.000000 1.000000 0.000000
      length 4.527550
      axis 0.0 0.0 0.0 xyz
      dof rx ry rz
   end
   begin
      id 9
      name LeftShoulder
      direction 1.000000 0.000000 0.000000
      length 7.084015
      axis 0.0 0.0 -90.0 xyz
      dof rx ry rz
   end
   begin
      id 10
      name LeftArm
      direction 1.000000 0.000000 0.000000
      length 10.259319
      axis 0.0 0.0 -90.0 xyz
      dof rx ry rz
   end
   begin
      id 11
      name LeftForeArm
      direction 1.000000 0.000000 0.000000
      length 9.896984
      axis 0.0 0.0 -90.0 xyz
      dof ry rz rx
   end
   begin
      id 12
      name LeftHand
      direction 0.000000 0.000000 0.000000
      length 0.000000
      axis 0.0 0.0 -90.0 xyz
      dof rx ry rz
   end
   begin
      id 13
      name LeftHand_dum1
      direction 0.000000 0.000000 0.000000
      length 0.000000
      axis 0.0 0.0 -90.0 xyz
   end
   begin
      id 14
      name LeftHand_dum2
      direction 1.000000 0.000000 0.000000
      length 3.937000
      axis 0.0 0.0 -90.0 xyz
   end
   begin
      id 15
      name LeftHandThumb1
      direction 0.000000 0.000000 1.000000
      length 3.937000
      axis 0.0 0.0 -90.0 xyz
      dof rx rz ry
   end
   begin
      id 16
      name RightShoulder
      direction -1.000000 0.000000 0.000000
      length 7.084015
      axis 0.0 0.0 90.0 xyz
      dof rx ry rz
   end
   begin
      id 17
      name RightArm
      direction -1.000000 0.000000 0.000000
      length 10.259319
      axis 0.0 0.0 90.0 xyz
      dof rx ry rz
   end
   begin
      id 18
      name RightForeArm
      direction -1.000000 0.000000 0.000000
      length 9.896984
      axis 0.0 0.0 90.0 xyz
      dof ry rz rx
   end
   begin
      id 19
      name RightHand
      direction 0.000000 0.000000 0.000000
      length 0.000000
      axis 0.0 0.0 90.0 xyz
      dof rx ry rz
   end
   begin
      id 20
      name RightHand_dum1
      direction 0.000000 0.000000 0.000000
      length 0.000000
      axis 0.0 0.0 90.0 xyz
   end
   begin
      id 21
      name RightHand_dum2
      direction -1.000000 0.000000 0.000000
      length 3.937000
      axis 0.0 0.0 90.0 xyz
   end
   begin
      id 22
      name RightHandThumb1
      direction 0.000000 0.000000 1.000000
      length 3.937000
      axis 0.0 0.0 90.0 xyz
      dof rx rz ry
   end
   begin
      id 23
      name LeftUpLeg
      direction 0.000000 -1.000000 0.000000
      length 19.114733
      axis 0.0 0.0 0.0 xyz
      dof rx ry rz
   end
   begin
      id 24
      name LeftLeg
      direction 0.000000 -1.000000 0.000000
      length 16.045604
      axis 0.0 0.0 0.0 xyz
      dof rx ry rz
   end
   begin
      id 25
      name LeftFoot
      direction 0.000000 -0.258819 0.965926
      length 5.543155
      axis 15.0 0.0 0.0 xyz
      dof rx ry rz
   end
   begin
      id 26
      name LeftToeBase
      direction 0.000000 0.000000 1.000000
      length 2.952750
      axis 0.0 0.0 0.0 xyz
      dof rx ry rz
   end
   begin
      id 27
      name RightUpLeg
      direction 0.000000 -1.000000 0.000000
      length 19.114733
      axis 0.0 0.0 0.0 xyz
      dof rx ry rz
   end
   begin
      id 28
      name RightLeg
      direction 0.000000 -1.000000 0.000000
      length 16.045604
      axis 0.0 0.0 0.0 xyz
      dof rx ry rz
   end
   begin
      id 29
      name RightFoot
      direction 0.000000 -0.258819 0.965926
      length 5.543155
      axis 15.0 0.0 0.0 xyz
      dof rx ry rz
   end
   begin
      id 30
      name RightToeBase
      direction 0.000000 0.000000 1.000000
      length 2.952750
      axis 0.0 0.0 0.0 xyz
      dof rx ry rz
   end
:hierarchy
   begin
      root Spine_dum LeftUpLeg_dum RightUpLeg_dum
      Spine_dum Spine
      LeftUpLeg_dum LeftUpLeg
      RightUpLeg_dum RightUpLeg
      Spine Spine_dum1 Spine_dum2 Spine_dum3
      Spine_dum1 Head
      Spine_dum2 LeftShoulder
      Spine_dum3 RightShoulder
      LeftShoulder LeftArm
      LeftArm LeftForeArm
      LeftForeArm LeftHand
      LeftHand LeftHand_dum1 LeftHand_dum2
      LeftHand_dum1 LeftHandThumb1
      RightShoulder RightArm
      RightArm RightForeArm
      RightForeArm RightHand
      RightHand RightHand_dum1 RightHand_dum2
      RightHand_dum1 RightHandThumb1
      LeftUpLeg LeftLeg
      LeftLeg LeftFoot
      LeftFoot LeftToeBase
      RightUpLeg RightLeg
      RightLeg RightFoot
      RightFoot RightToeBase
   end

# File created by Blade
# Date/Time:  Tue Jan 27 17:27:32 2015
# Frame Rate: 120.000 fps
#------------------------------------------------------
:FULLY-SPECIFIED
:DEGREES
1096
root 4.065243 37.026623 0.153913 8.173118 23.894639 -1.433289
Spine -0.240550 11.707464 1.048634
Head 8.323474 0.912844 -5.422769
LeftShoulder -5.318575 -9.572689 4.559318
LeftArm 0.635276 -16.798242 -53.307402
LeftForeArm 9.146325 -0.000000 108.481227
LeftHand -17.214020 -0.000000 34.765857
LeftHandThumb1 -26.253704 0.000000 33.147579
RightShoulder -3.004944 -20.139759 -1.065620
RightArm 15.249191 -17.057930 60.355204
RightForeArm 189.289637 -0.000000 21.980370
RightHand -0.311442 0.000000 4.674056
RightHandThumb1 -24.326973 -0.000000 -32.862282
LeftUpLeg -10.097687 -7.079159 -0.635749
LeftLeg 7.469452 -0.000000 -0.000000
LeftFoot -11.800887 -9.408784 -8.320460
LeftToeBase 9.329287 -0.000000 -0.000000
RightUpLeg -39.440375 4.912109 -13.118940
RightLeg 108.141880 -0.000000 -0.000000
RightFoot -5.093251 -1.812381 1.820549
RightToeBase 3.119577 -0.000000 -0.000000
1097
root 4.022755 37.041859 0.149402 7.984216 24.419364 -1.758176
Spine -0.071087 11.331006 1.407667
Head 8.247709 0.635694 -5.227143
LeftShoulder -5.229571 -9.650436 4.667516
LeftArm 0.636220 -16.705264 -53.366419
LeftForeArm 9.117816 0.000000 108.411594
LeftHand -17.242982 -0.000000 34.984062
LeftHandThumb1 -26.253704 0.000000 33.147579
RightShoulder -3.104877 -20.179168 -1.026868
RightArm 15.128696 -17.081254 60.484460
RightForeArm 189.282109 -0.000000 21.891453
RightHand -0.287256 0.000000 4.743812
RightHandThumb1 -24.326973 -0.000000 -32.862282
LeftUpLeg -10.226244 -7.384733 -0.256253
LeftLeg 7.718636 -0.000000 -0.000000
LeftFoot -11.897182 -9.418617 -8.133013
LeftToeBase 9.239717 -0.000000 -0.000000
RightUpLeg -39.721753 5.661415 -13.405113
RightLeg 107.836784 -0.000000 -0.000000
RightFoot -5.496893 -1.662887 1.934465
RightToeBase 3.863109 -0.000000 -0.000000
1098
root 3.991405 37.055467 0.148795 7.751570 24.916873 -2.029918
Spine 0.159149 10.976442 1.743249
Head 8.209594 0.355714 -5.066273
LeftShoulder -5.132573 -9.704312 4.737697
LeftArm 0.679353 -16.644365 -53.402024
LeftForeArm 9.116146 0.000000 108.317236
LeftHand -17.293396 -0.000000 35.147599
LeftHandThumb1 -26.253704 0.000000 33.147579
RightShoulder -3.175547 -20.189032 -1.010233
RightArm 14.930981 -17.048631 60.653278
RightForeArm 189.168725 -0.000000 21.849658
RightHand -0.255342 -0.000000 4.561099
RightHandThumb1 -24.326973 -0.000000 -32.862282
LeftUpLeg -10.258887 -7.769446 0.056593
LeftLeg 7.915539 -0.000000 -0.000000
LeftFoot -11.988056 -9.391390 -8.090114
LeftToeBase 9.319886 -0.000000 -0.000000
RightUpLeg -39.923739 6.288382 -13.729713
RightLeg 107.525671 -0.000000 -0.000000
RightFoot -5.536311 -1.488505 1.251332
RightToeBase 2.797405 -0.000000 -0.000000
1099
root 3.956790 37.068443 0.147432 7.460245 25.318926 -2.278209
Spine 0.477535 10.696033 2.025184
Head 8.169382 0.131864 -4.717533
LeftShoulder -5.029883 -9.737244 4.828703
LeftArm 0.739906 -16.605733 -53.431777
LeftForeArm 9.100670 -0.000000 108.218724
LeftHand -17.259033 -0.000000 35.329115
LeftHandThumb1 -26.253704 0.000000 33.147579
RightShoulder -3.175281 -20.182145 -0.999729
RightArm 14.752714 -17.049140 60.819603
RightForeArm 189.076799 -0.000000 21.809915
RightHand -0.081875 -0.000000 4.528898
RightHandThumb1 -24.326973 -0.000000 -32.862282
LeftUpLeg -10.229832 -8.035359 0.329326
LeftLeg 8.131237 -0.000000 -0.000000
LeftFoot -12.042849 -9.370833 -7.968233
LeftToeBase 9.228055 -0.000000 -0.000000
RightUpLeg -40.117160 6.934991 -14.016747
RightLeg 107.277184 -0.000000 -0.000000
RightFoot -5.685579 -1.260637 0.794971
RightToeBase 2.736570 -0.000000 -0.000000
1100
root 3.933434 37.080234 0.152383 7.158028 25.711473 -2.527039
Spine 0.768111 10.432142 2.330803
Head 8.146955 -0.142486 -4.484558
LeftShoulder -4.924203 -9.775558 4.889601
LeftArm 0.764886 -16.545287 -53.454592
LeftForeArm 9.071309 -0.000000 108.131892
LeftHand -17.253379 -0.000000 35.427169
LeftHandThumb1 -26.253704 0.000000 33.147579
RightShoulder -3.190511 -20.209245 -0.997776
RightArm 14.577801 -17.015918 60.978428
RightForeArm 188.938156 -0.000000 21.716607
RightHand -0.149085 0.000000 4.265177
RightHandThumb1 -24.326973 -0.000000 -32.862282
LeftUpLeg -10.162367 -8.308944 0.587419
LeftLeg 8.331773 -0.000000 -0.000000
LeftFoot -12.142003 -9.303802 -7.832954
LeftToeBase 9.214272 -0.000000 -0.000000
RightUpLeg -40.264582 7.509524 -14.265568
RightLeg 107.029472 -0.000000 -0.000000
RightFoot -5.900376 -1.077417 0.376832
RightToeBase 2.836746 -0.000000 -0.000000
1101
root 3.906600 37.090848 0.148526 6.996708 26.092042 -2.759761
Spine 0.882179 10.165902 2.567858
Head 8.160807 -0.410242 -4.215310
LeftShoulder -4.825922 -9.796302 4.967645
LeftArm 0.791174 -16.499251 -53.447879
LeftForeArm 9.064952 0.000000 108.057891
LeftHand -17.284413 -0.000000 35.531291
LeftHandThumb1 -26.253704 0.000000 33.147579
RightShoulder -3.201430 -20.271302 -0.988347
RightArm 14.437682 -17.077687 61.108471
RightForeArm 188.773338 -0.000000 21.648090
RightHand -0.070927 -0.000000 4.137591
RightHandThumb1 -24.326973 -0.000000 -32.862282
LeftUpLeg -10.253078 -8.586937 0.848971
LeftLeg 8.532532 -0.000000 -0.000000
LeftFoot -12.236638 -9.240107 -7.468203
LeftToeBase 9.044078 -0.000000 -0.000000
RightUpLeg -40.566092 7.956105 -14.511796
RightLeg 106.811305 -0.000000 -0.000000
RightFoot -6.050213 -0.851339 0.200640
RightToeBase 2.488186 -0.000000 -0.000000
1102
root 3.884357 37.100943 0.152235 6.677859 26.516696 -2.962384
Spine 1.214490 9.834638 2.829473
Head 8.137764 -0.675835 -4.028993
LeftShoulder -4.800347 -9.774352 5.064999
LeftArm 0.916440 -16.382062 -53.501637
LeftForeArm 9.057483 -0.000000 107.911117
LeftHand -17.186137 -0.000000 35.707046
LeftHandThumb1 -26.253704 0.000000 33.147579
RightShoulder -3.150554 -20.265470 -1.014512
RightArm 14.260556 -17.133948 61.251539
RightForeArm 188.656967 -0.000000 21.593012
RightHand -0.061033 0.000000 3.956485
RightHandThumb1 -24.326973 -0.000000 -32.862282
LeftUpLeg -10.152612 -8.903647 1.067074
LeftLeg 8.693283 -0.000000 -0.000000
LeftFoot -12.300198 -9.249426 -7.656673
LeftToeBase 9.353041 -0.000000 -0.000000
RightUpLeg -40.658371 8.259771 -14.678939
RightLeg 106.594053 -0.000000 -0.000000
RightFoot -6.073098 -0.856310 -0.197125
RightToeBase 1.330900 -0.000000 -0.000000
1103
root 3.856118 37.113172 0.151132 6.496609 26.898136 -3.181920
Spine 1.349602 9.620992 3.048380
Head 8.184092 -0.996547 -3.780300
LeftShoulder -4.646680 -9.813414 5.111664
LeftArm 0.949561 -16.284773 -53.456940
LeftForeArm 9.181376 -0.000000 107.794033
LeftHand -17.206257 -0.000000 36.013687
LeftHandThumb1 -26.253704 0.000000 33.147579
RightShoulder -3.228976 -20.353348 -0.951045
RightArm 14.188257 -17.272490 61.311235
RightForeArm 188.615957 0.000000 21.555623
RightHand 0.028551 -0.000000 3.848585
RightHandThumb1 -24.326973 -0.000000 -32.862282
LeftUpLeg -10.218029 -9.132686 1.321329
LeftLeg 8.875406 -0.000000 -0.000000
LeftFoot -12.302328 -9.317080 -7.665033
LeftToeBase 9.321915 -0.000000 -0.000000
RightUpLeg -40.924214 8.487755 -14.820636
RightLeg 106.427000 -0.000000 -0.000000
RightFoot -6.341481 -0.700333 0.159585
RightToeBase 1.849351 -0.000000 -0.000000
1104
root 3.833564 37.123122 0.152143 6.253633 27.262666 -3.369986
Spine 1.579107 9.367071 3.256876
Head 8.183301 -1.259725 -3.527911
LeftShoulder -4.579369 -9.822889 5.145527
LeftArm 1.081335 -16.226960 -53.426415
LeftForeArm 9.122941 -0.000000 107.664812
LeftHand -17.241338 -0.000000 36.178355
LeftHandThumb1 -26.253704 0.000000 33.147579
RightShoulder -3.230837 -20.389569 -0.928631
RightArm 14.105268 -17.338356 61.408148
RightForeArm 188.444998 -0.000000 21.472969
RightHand 0.129135 0.000000 3.662932
RightHandThumb1 -24.326973 -0.000000 -32.862282
LeftUpLeg -10.187321 -9.301341 1.525572
LeftLeg 9.019985 -0.000000 -0.000000
LeftFoot -12.280434 -9.467324 -7.601116
LeftToeBase 9.262343 -0.000000 -0.000000
RightUpLeg -41.091287 8.592486 -14.929083
RightLeg 106.285297 -0.000000 -0.000000
RightFoot -6.499797 -0.691981 0.076705
RightToeBase 1.683949 -0.000000 -0.000000
1105
root 3.812905 37.132287 0.152336 5.991423 27.587625 -3.595033
Spine 1.811884 9.161157 3.534322
Head 8.196615 -1.548329 -3.372409
LeftShoulder -4.498992 -9.845231 5.166454
LeftArm 1.214495 -16.093213 -53.429452
LeftForeArm 9.510882 -0.000000 107.454071
LeftHand -17.284268 -0.000000 36.546539
LeftHandThumb1 -26.253704 0.000000 33.147579
RightShoulder -3.251397 -20.417363 -0.940978
RightArm 14.035811 -17.490412 61.469288
RightForeArm 188.285523 -0.000000 21.415319
RightHand 0.168325 0.000000 3.452103
RightHandThumb1 -24.326973 -0.000000 -32.862282
LeftUpLeg -10.153588 -9.364789 1.748871
LeftLeg 9.188030 -0.000000 -0.000000
LeftFoot -12.304799 -9.711301 -7.621258
LeftToeBase 9.342574 -0.000000 -0.000000
RightUpLeg -41.247139 8.670481 -14.935971
RightLeg 106.164870 -0.000000 -0.000000
RightFoot -6.491598 -0.784732 -0.305635
RightToeBase 1.106197 -0.000000 -0.000000
1106
root 3.795714 37.141219 0.154399 5.745788 27.938010 -3.778028
Spine 2.022458 8.965320 3.747367
Head 8.234502 -1.885018 -3.186758
LeftShoulder -4.381553 -9.864960 5.205256
LeftArm 1.284465 -16.033749 -53.446197
LeftForeArm 9.504176 -0.000000 107.352977
LeftHand -17.304381 -0.000000 36.635344
LeftHandThumb1 -26.253704 0.000000 33.147579
RightShoulder -3.308200 -20.445516 -0.900558
RightArm 13.961726 -17.642015 61.506181
RightForeArm 188.030062 -0.000000 21.341905
RightHand 0.191293 -0.000000 3.294417
RightHandThumb1 -24.326973 -0.000000 -32.862282
LeftUpLeg -10.099542 -9.503041 1.931258
LeftLeg 9.308376 -0.000000 -0.000000
LeftFoot -12.288653 -9.856393 -7.606935
LeftToeBase 9.284204 -0.000000 -0.000000
RightUpLeg -41.387354 8.621169 -14.947032
RightLeg 106.069441 -0.000000 -0.000000
RightFoot -6.973719 -0.626121 0.791934
RightToeBase 2.725339 -0.000000 -0.000000
1107
root 3.778006 37.149538 0.157121 5.516516 28.279789 -3.951421
Spine 2.201671 8.750877 3.934282
Head 8.299384 -2.174044 -2.987301
LeftShoulder -4.309188 -9.843753 5.267885
LeftArm 1.393978 -15.955056 -53.491405
LeftForeArm 9.508770 -0.000000 107.220546
LeftHand -17.243699 -0.000000 36.837592
LeftHandThumb1 -26.253704 0.000000 33.147579
RightShoulder -3.349926 -20.482727 -0.844918
RightArm 13.901072 -17.840518 61.502963
RightForeArm 187.938860 -0.000000 21.334729
RightHand 0.290102 -0.000000 3.057099
RightHandThumb1 -24.326973 -0.000000 -32.862282
LeftUpLeg -10.041950 -9.617496 2.106651
LeftLeg 9.393469 -0.000000 -0.000000
LeftFoot -12.244778 -10.051355 -7.632103
LeftToeBase 9.261582 -0.000000 -0.000000
RightUpLeg -41.510140 8.510007 -14.927196
RightLeg 106.015393 -0.000000 -0.000000
RightFoot -7.223088 -0.497945 1.052453
RightToeBase 2.899314 -0.000000 -0.000000
1108
root 3.761247 37.157482 0.156240 5.354107 28.573648 -4.112531
Spine 2.297806 8.621841 4.094064
Head 8.374840 -2.480610 -2.794274
LeftShoulder -4.220203 -9.824448 5.310830
LeftArm 1.512929 -15.847851 -53.504178
LeftForeArm 9.459241 0.000000 107.104662
LeftHand -17.255888 -0.000000 37.048918
LeftHandThumb1 -26.253704 0.000000 33.147579
RightShoulder -3.442185 -20.512038 -0.774055
RightArm 13.837530 -17.983373 61.523587
RightForeArm 187.611249 -0.000000 21.299578
RightHand 0.395535 -0.000000 2.834776
RightHandThumb1 -24.326973 -0.000000 -32.862282
LeftUpLeg -10.037864 -9.713635 2.275315
LeftLeg 9.455237 -0.000000 -0.000000
LeftFoot -12.214607 -10.185217 -7.630464
LeftToeBase 9.287074 -0.000000 -0.000000
RightUpLeg -41.707226 8.321205 -14.894061
RightLeg 105.980459 -0.000000 -0.000000
RightFoot -7.338970 -0.464385 1.022225
RightToeBase 2.063289 -0.000000 -0.000000
